<svg xmlns="http://www.w3.org/2000/svg" xmlns:xlink="http://www.w3.org/1999/xlink" version="1.1" x="0px" y="0px" width="512px" height="822px" viewBox="0 0 512 822" enable-background="new 0 0 512 822" xml:space="preserve"><g><g><path fill="none" d="M32.028 240.012c0-66.992 0-133.983 0-200.975c150.314 0 300.6 0 450.9 0c0 67 0 134 0 201 C332.656 240 182.3 240 32 240.012z M465.239 147.718c2.818-0.062 5.7 0.1 8.436-0.302 c1.196-0.186 3.084-1.595 3.137-2.534c0.301-5.389 0.146-10.803 0.146-16.717c-3.133 0-5.59 0-8.047 0 c0.797-1.156 1.664-2.269 2.373-3.476c1.648-2.804 4.013-5.475 4.687-8.512c3.185-14.365-0.462-22.956-12.693-31.146 c-11.474-7.683-24.357-12.164-37.466-15.986c-41.923-12.229-85.059-16.511-128.42-18.729c-18.404-0.942-36.897-0.803-55.331-0.348 c-20.262 0.5-40.52 1.651-60.745 3.02c-26.561 1.8-52.838 5.776-78.692 12.191c-18.583 4.611-37.045 9.71-53.135 20.7 c-15.012 10.282-16.95 26.777-4.904 40.376c0.384 0.4 0.3 1.2 0.5 1.879c-2.568 0-5.136 0-7.697 0 c0 6.9 0 12.9 0 19.581c4.119 0 7.9 0 11.7 0c-0.018 0.741-0.036 1.482-0.053 2.223c-6.28 1.947-9.98 6.104-11.326 12.6 c-2.615 12.6 1 22.1 11.6 29.455c13.911 9.6 29.8 14.6 45.9 18.933c46.704 12.5 94.6 16.4 142.6 17.6 c27.371 0.7 54.835-1.195 82.23-2.5c28.254-1.346 56.225-5.333 83.849-11.412c18.532-4.078 36.796-9.169 53.715-18.111 c16.52-8.73 21.679-18.405 18.611-34.471c-1.224-6.405-5.186-10.157-11.146-12.141 C465.089 149.2 465.2 148.5 465.2 147.718z"/><path fill-rule="evenodd" clip-rule="evenodd" fill="#D0A574" d="M465.013 149.971c5.961 2 9.9 5.7 11.1 12.1 c3.067 16.065-2.092 25.74-18.611 34.471c-16.919 8.942-35.183 14.033-53.715 18.111c-27.624 6.079-55.595 10.066-83.849 11.4 c-27.396 1.305-54.859 3.222-82.23 2.5c-48.026-1.268-95.915-5.134-142.618-17.65c-16.085-4.31-31.956-9.298-45.866-18.933 c-10.589-7.335-14.225-16.831-11.61-29.455c1.346-6.495 5.046-10.651 11.326-12.599c2.794-0.293 5.587-0.844 8.381-0.844 c133.088-0.043 266.177-0.043 399.3 0C459.426 149.1 462.2 149.7 465 149.971z"/><path fill-rule="evenodd" clip-rule="evenodd" fill="#D0A574" d="M45.083 128.167c-0.157-0.635-0.115-1.446-0.5-1.879 c-12.046-13.599-10.108-30.095 4.904-40.376c16.09-11.021 34.553-16.121 53.135-20.732c25.854-6.415 52.131-10.391 78.692-12.191 c20.226-1.369 40.483-2.52 60.745-3.02c18.434-0.455 36.927-0.595 55.3 0.348c43.361 2.2 86.5 6.5 128.4 18.7 c13.108 3.8 26 8.3 37.5 15.986c12.231 8.2 15.9 16.8 12.7 31.146c-0.674 3.037-3.038 5.708-4.687 8.5 c-0.709 1.207-1.576 2.32-2.372 3.476c-1.756 0.28-3.513 0.805-5.27 0.806c-137.763 0.037-275.525 0.036-413.288-0.003 C48.598 129 46.8 128.4 45.1 128.167z"/><path fill-rule="evenodd" clip-rule="evenodd" fill="#965538" d="M45.083 128.167c1.757 0.3 3.5 0.8 5.3 0.8 c137.762 0 275.5 0 413.3 0.003c1.757-0.001 3.514-0.525 5.27-0.806c2.456 0 4.9 0 8 0 c0 5.9 0.2 11.328-0.146 16.717c-0.053 0.939-1.94 2.349-3.137 2.534c-2.761 0.429-5.617 0.24-8.436 0.3 c-1.962-0.204-3.925-0.587-5.887-0.588c-134.994-0.027-269.987-0.027-404.981 0.002c-1.778 0-3.555 0.402-5.333 0.6 c-3.767 0-7.534 0-11.653 0c0-6.717 0-12.729 0-19.581C39.948 128.2 42.5 128.2 45.1 128.167z"/><path fill-rule="evenodd" clip-rule="evenodd" fill="#D6BDB1" d="M49.039 147.749c1.778-0.215 3.555-0.617 5.333-0.617 c134.994-0.029 269.987-0.029 404.981-0.002c1.962 0 3.9 0.4 5.9 0.588c-0.075 0.752-0.15 1.504-0.227 2.3 c-2.793-0.293-5.587-0.844-8.381-0.844c-133.088-0.043-266.177-0.043-399.265 0c-2.794 0-5.587 0.551-8.381 0.8 C49.003 149.2 49 148.5 49 147.749z"/></g></g><g><g><path fill="none" d="M32.028 422.987c0-66.992 0-133.983 0-200.975c150.314 0 300.6 0 450.9 0c0 67 0 134 0 201 C332.656 423 182.3 423 32 422.987z M464.954 330.72c2.481-0.067 4.977-0.331 7.441-0.155 c3.405 0.2 4.784-0.934 4.564-4.498c-0.286-4.618-0.113-9.265-0.137-13.9c-2.658-0.715-5.316-1.428-7.975-2.143 c0.156-0.474 0.186-1.054 0.484-1.404c10.683-12.521 9.948-26.43-2.284-37.076c-3.085-2.685-6.748-4.812-10.388-6.739 c-24.236-12.832-50.698-18.386-77.39-22.73c-16.968-2.762-34.124-4.481-51.248-6.14c-16.813-1.629-33.68-3.39-50.545-3.633 c-20.073-0.289-40.187 0.66-60.252 1.668c-17.198 0.863-34.457 1.801-51.503 4.085c-21.948 2.94-43.858 6.568-65.509 11.2 c-18.169 3.878-35.586 10.311-51.428 20.618c-13.176 8.573-13.607 27.749-7.186 35.592c1.222 1.5 2.4 3 3.5 4.6 c-2.658 0.715-5.315 1.429-7.974 2.144c-0.024 2.152-0.068 4.303-0.069 6.455c-0.007 11.851-0.003 11.9 11.9 12.1 c0.027 0.8 0.1 1.5 0.1 2.283c-5.018 2.554-9.243 5.93-10.891 11.574c-3.387 11.6 0.9 22.6 11 29.7 c14.426 10 30.8 15.3 47.5 19.745c41.527 10.9 84.1 15.1 126.8 16.762c24.394 1 48.9 0.1 73.317-0.771 c17.195-0.596 34.446-1.76 51.489-4.045c21.942-2.942 43.848-6.566 65.492-11.195c18.163-3.883 35.549-10.331 51.43-20.596 c14.065-9.09 15.955-35.266-0.389-41.145C464.901 332.2 464.9 331.5 465 330.72z"/><path fill-rule="evenodd" clip-rule="evenodd" fill="#A7D9A8" d="M45.15 310.023c-1.181-1.525-2.328-3.077-3.55-4.569 c-6.421-7.844-5.991-27.019 7.186-35.592c15.842-10.307 33.259-16.74 51.428-20.618c21.651-4.622 43.561-8.25 65.509-11.19 c17.046-2.284 34.305-3.223 51.503-4.085c20.066-1.008 40.179-1.957 60.252-1.668c16.865 0.2 33.7 2 50.5 3.6 c17.124 1.7 34.3 3.4 51.2 6.14c26.691 4.3 53.2 9.9 77.4 22.73c3.64 1.9 7.3 4.1 10.4 6.7 c12.232 10.6 13 24.6 2.3 37.076c-0.299 0.351-0.328 0.931-0.483 1.404c-0.6 0.437-1.201 0.874-1.802 1.3 c-2.304 0.221-4.608 0.635-6.912 0.636c-135.257 0.031-270.514 0.031-405.77 0c-2.472 0-4.943-0.409-7.415-0.627 C46.351 310.9 45.8 310.5 45.1 310.023z"/><path fill-rule="evenodd" clip-rule="evenodd" fill="#A7D9A8" d="M464.874 333.005c16.346 5.9 14.5 32.1 0.4 41.1 c-15.881 10.265-33.267 16.713-51.43 20.596c-21.645 4.629-43.55 8.253-65.492 11.195c-17.043 2.285-34.294 3.449-51.489 4 c-24.424 0.846-48.923 1.736-73.317 0.771c-42.708-1.688-85.236-5.816-126.763-16.762c-16.702-4.401-33.097-9.714-47.522-19.745 c-10.155-7.061-14.408-18.077-11.021-29.673c1.648-5.645 5.874-9.021 10.89-11.574c2.617-0.326 5.234-0.936 7.852-0.938 c133.351-0.045 266.7-0.045 400.1 0C459.64 332.1 462.3 332.7 464.9 333.005z"/><path fill-rule="evenodd" clip-rule="evenodd" fill="#558356" d="M46.951 311.343c2.472 0.2 4.9 0.6 7.4 0.6 c135.256 0 270.5 0 405.8 0c2.304-0.001 4.608-0.415 6.912-0.633c3.258 0.3 6.5 0.6 9.8 0.8 c0.023 4.635-0.149 9.3 0.1 13.9c0.22 3.564-1.159 4.741-4.564 4.498c-2.465-0.176-4.96 0.088-7.441 0.2 c-1.779-0.215-3.559-0.615-5.338-0.616c-135.079-0.028-270.158-0.028-405.237 0c-1.78 0.001-3.56 0.401-5.339 0.6 c-11.937-0.248-11.94-0.248-11.934-12.099c0.001-2.152 0.045-4.303 0.069-6.455C40.434 311.9 43.7 311.6 47 311.343z"/><path fill-rule="evenodd" clip-rule="evenodd" fill="#BDCFBD" d="M49.04 330.72c1.78-0.214 3.56-0.614 5.339-0.615 c135.079-0.028 270.158-0.028 405.2 0c1.779 0 3.6 0.4 5.3 0.616c-0.026 0.761-0.053 1.522-0.079 2.3 c-2.618-0.326-5.235-0.938-7.853-0.939c-133.351-0.045-266.7-0.045-400.051 0c-2.617 0.002-5.234 0.611-7.852 0.9 C49.094 332.2 49.1 331.5 49 330.72z"/><path fill-rule="evenodd" clip-rule="evenodd" fill="#BDCFBD" d="M46.951 311.343c-3.258 0.274-6.517 0.549-9.775 0.8 c2.659-0.715 5.316-1.429 7.975-2.143C45.75 310.5 46.4 310.9 47 311.343z"/><path fill-rule="evenodd" clip-rule="evenodd" fill="#BDCFBD" d="M476.823 312.166c-3.259-0.275-6.518-0.551-9.775-0.829 c0.601-0.44 1.202-0.877 1.802-1.314C471.507 310.7 474.2 311.5 476.8 312.166z"/></g></g><g><g><path fill="none" d="M32.028 603.987c0-66.992 0-133.983 0-200.975c150.314 0 300.6 0 450.9 0c0 67 0 134 0 201 C332.656 604 182.3 604 32 603.987z M47.068 510.885c-0.046 0.315-0.082 0.633-0.11 1 c-2.784 2.957-6.838 5.454-8.114 8.962c-3.771 10.37-3.116 22.6 6.5 30.458c8.914 7.3 19.1 12 29.7 15.7 c39.95 13.9 81.6 18.9 123.4 21.863c18.224 1.3 36.6 1 54.9 1.121c16.479 0.1 33 0.7 49.43-0.344 c22.324-1.462 44.603-3.953 66.818-6.676c24.528-3.005 48.607-8.305 71.847-16.93c10.144-3.766 19.968-8.207 28.047-15.673 c12.575-11.621 10.229-31.231-4.652-39.318c2.827-0.045 5.7 0.2 8.464-0.254c1.254-0.194 3.209-1.602 3.295-2.593 c0.367-4.231 0.156-8.515 0.156-12.354c-3.254-0.81-5.743-1.428-8.231-2.047c0.376-0.882 0.576-2.387 1.155-2.549 c5.104-1.439 6.097-5.838 6.942-9.947c2.742-13.322-1.353-22.504-13.021-30.303c-11.448-7.65-24.252-12.173-37.313-16.024 c-41.179-12.144-83.565-17.394-126.188-18.542c-43.861-1.182-87.851-2.027-131.652 3.414c-25.029 3.109-49.928 6.63-74.288 13.3 c-15.376 4.188-30.578 8.955-43.952 18.001c-6.583 4.453-12.517 9.66-13.171 18.368c-0.652 8.68-0.429 17.2 7.2 23.4 c-2.083 1.087-4.166 2.174-7.112 3.711c0 0.788-0.016 2.6 0 4.321C37.282 512.3 35.8 510.8 47.1 510.885z"/><path fill-rule="evenodd" clip-rule="evenodd" fill="#FEB910" d="M464.876 511.005c14.883 8.1 17.2 27.7 4.7 39.3 c-8.079 7.466-17.903 11.907-28.047 15.673c-23.239 8.625-47.318 13.925-71.847 16.93c-22.216 2.723-44.494 5.214-66.818 6.7 c-16.415 1.074-32.951 0.479-49.43 0.344c-18.292-0.151-36.636 0.162-54.86-1.121c-41.872-2.947-83.483-7.917-123.434-21.863 c-10.668-3.724-20.829-8.454-29.742-15.706c-9.623-7.831-10.278-20.088-6.507-30.458c1.275-3.508 5.33-6.005 8.114-8.962 c2.623-0.279 5.246-0.802 7.869-0.803c136.715-0.016 273.4 0 410.1 0.037L464.876 511.005z"/><path fill-rule="evenodd" clip-rule="evenodd" fill="#FEB910" d="M44.272 492.822c-7.63-6.179-7.853-14.699-7.201-23.379 c0.654-8.708 6.589-13.915 13.171-18.368c13.374-9.046 28.576-13.812 43.952-18.001c24.36-6.637 49.259-10.157 74.288-13.267 c43.802-5.441 87.791-4.596 131.652-3.414c42.623 1.1 85 6.4 126.2 18.542c13.062 3.9 25.9 8.4 37.3 16 c11.668 7.8 15.8 17 13 30.303c-0.846 4.109-1.838 8.508-6.942 9.947c-0.579 0.162-0.779 1.667-1.154 2.5 c-3.759 0.081-7.517 0.23-11.275 0.231c-50.993 0.016-101.985 0.011-152.979 0.011c-82.488 0-164.976 0.018-247.464-0.05 C52.652 493.9 48.5 493.2 44.3 492.822z"/><path fill-rule="evenodd" clip-rule="evenodd" fill="#FED789" d="M44.272 492.822c4.19 0.4 8.4 1.1 12.6 1.1 c82.488 0.1 165 0.1 247.5 0.05c50.993 0 102 0 152.979-0.011c3.759-0.001 7.517-0.15 11.275-0.231 c2.487 0.6 5 1.2 8.2 2.046c0 3.8 0.2 8.122-0.156 12.354c-0.086 0.991-2.041 2.398-3.295 2.6 c-2.768 0.43-5.637 0.209-8.465 0.253l0.098 0.065c-1.876-0.357-3.752-1.026-5.628-1.027 c-135.683-0.049-271.365-0.048-407.047-0.008c-1.744 0.001-3.487 0.554-5.23 0.85c-11.29-0.128-9.786 1.415-9.905-10.03 c-0.019-1.766-0.002-3.533-0.002-4.321C40.106 495 42.2 493.9 44.3 492.822z"/><path fill-rule="evenodd" clip-rule="evenodd" fill="#FEE6B4" d="M47.068 510.885c1.743-0.296 3.487-0.849 5.23-0.85 c135.682-0.04 271.364-0.041 407 0.008c1.876 0 3.8 0.7 5.6 1.027c-136.715-0.024-273.431-0.053-410.146-0.037 c-2.623 0.001-5.246 0.523-7.869 0.803C46.986 511.5 47 511.2 47.1 510.885z"/></g></g><g><g><path fill="none" d="M32.028 785.962c0-66.992 0-133.983 0-200.975c150.314 0 300.6 0 450.9 0c0 67 0 134 0 201 C332.656 786 182.3 786 32 785.962z M45.984 674.463c-2.776 0-5.552 0-8.504 0c0 6.6 0 12.6 0 19.4 c3.835 0 7.3 0 10.8 0c-11.356 6.928-12.819 17.463-10.119 29.122c1.832 7.9 8.3 12.2 14.7 16.2 c14.303 8.9 30.3 13.7 46.4 17.77c50.307 12.7 101.7 15.9 153.3 16.717c17.1 0.3 34.229-0.832 51.334-1.553 c34.604-1.455 68.909-5.449 102.702-13.169c18.999-4.339 37.82-9.421 54.647-19.757c6.386-3.924 12.846-8.263 14.704-16.186 c2.744-11.699 1.122-22.167-10.104-29.157c3.594 0 7.2 0 11.1 0c0-3.669 0-6.315 0-8.96c0-10.817 0-10.817-10.887-10.409 c0.587-0.769 1.015-1.8 1.785-2.265c9.913-5.994 9.804-15.512 8.561-25.141c-1.165-9.027-8.113-13.836-15.06-18.199 c-14.271-8.963-30.247-13.697-46.389-17.822c-38.669-9.88-78.165-14.545-117.895-15.57c-34.396-0.889-68.879 0.273-103.287 1.5 c-29.607 1.083-58.899 5.59-87.761 12.323c-18.477 4.31-36.826 9.325-53.184 19.475c-6.976 4.329-13.957 9.148-15.125 18.1 c-1.217 9.372-1.581 18.8 7.9 24.995C46.056 672.2 45.9 673.6 46 674.463z"/><path fill-rule="evenodd" clip-rule="evenodd" fill="#F88780" d="M465.763 693.833c11.23 7 12.9 17.5 10.1 29.2 c-1.858 7.923-8.318 12.262-14.704 16.186c-16.827 10.336-35.648 15.418-54.647 19.757c-33.793 7.72-68.099 11.714-102.702 13.2 c-17.105 0.721-34.234 1.827-51.334 1.553c-51.586-0.826-102.977-4.032-153.284-16.717c-16.152-4.072-32.103-8.868-46.406-17.77 c-6.379-3.972-12.844-8.302-14.675-16.208c-2.7-11.659-1.237-22.194 10.117-29.122c1.758-0.236 3.518-0.678 5.278-0.678 c135.655-0.032 271.311-0.032 406.966-0.001C462.241 693.2 464 693.6 465.8 693.833z"/><path fill-rule="evenodd" clip-rule="evenodd" fill="#F88780" d="M45.984 674.463c-0.121-0.868 0.072-2.216-0.41-2.53 c-9.493-6.189-9.129-15.623-7.912-24.995c1.168-8.994 8.15-13.813 15.125-18.143c16.357-10.149 34.707-15.165 53.184-19.475 c28.862-6.733 58.154-11.24 87.761-12.323c34.408-1.258 68.89-2.42 103.287-1.531c39.729 1 79.2 5.7 117.9 15.6 c16.142 4.1 32.1 8.9 46.4 17.822c6.946 4.4 13.9 9.2 15.1 18.199c1.243 9.6 1.4 19.146-8.561 25.1 c-0.771 0.465-1.198 1.496-1.785 2.265c-2.153 0.118-4.307 0.342-6.459 0.342c-135.705 0.017-271.41 0.017-407.114 0 C50.291 674.8 48.1 674.6 46 674.463z"/><path fill-rule="evenodd" clip-rule="evenodd" fill="#7B5354" d="M45.984 674.463c2.153 0.1 4.3 0.3 6.5 0.3 c135.705 0 271.4 0 407.1 0c2.152 0 4.306-0.224 6.459-0.342c10.887-0.408 10.887-0.408 10.9 10.4 c0 2.6 0 5.3 0 8.96c-3.949 0-7.543 0-11.139 0.001c-1.764-0.234-3.523-0.674-5.285-0.675 c-135.655-0.031-271.311-0.031-406.966 0.001c-1.76 0-3.521 0.441-5.278 0.678c-3.459 0-6.919 0-10.755 0 c0-6.745 0-12.779 0-19.374C40.433 674.5 43.2 674.5 46 674.463z"/></g></g></svg>