<svg xmlns="http://www.w3.org/2000/svg" xmlns:xlink="http://www.w3.org/1999/xlink" version="1.1" x="0px" y="0px" width="216px" height="324.225px" viewBox="0 0 216 324.225" enable-background="new 0 0 216 324.225" xml:space="preserve"><g><g><path fill="#D0A574" d="M196.899 63.949c0 2.1 0 4.3 0 6.437c-2.504 4.71-6.774 7.262-11.48 9.2 c-3.343 1.354-6.748 2.611-10.216 3.589c-19.41 5.474-39.364 6.941-59.381 7.657c-15.747 0.563-31.447-0.511-47.081-2.391 c-11.312-1.36-22.521-3.325-33.283-7.216c-6.118-2.212-12.177-4.623-15.575-10.807c0-2.28 0-4.56 0-6.839 c1.274-1.844 2.371-3.88 4.821-4.451c1.129-0.109 2.258-0.313 3.387-0.313c53.533-0.016 107.066-0.016 160.6 0 c1.129 0 2.3 0.2 3.4 0.313C194.608 59.8 195.8 61.8 196.9 63.949z"/><path fill-rule="evenodd" clip-rule="evenodd" fill="#D0A574" d="M96.322 18.488c2.682 0 5.4 0 8 0s5.364 0 8 0 c2.682 0 5.4 0 8 0c0.489 0.1 1 0.4 1.5 0.382c13.059 0.6 26.1 1.7 38.9 4.1 c9.367 1.7 18.6 3.9 27.2 8.143c3.773 1.9 7.1 4.3 8.8 8.336c0 2.1 0 4.3 0 6.4 c-1.118 1.487-2.237 2.973-3.355 4.46c-0.984 0.122-1.968 0.349-2.952 0.349C135.792 50.7 81 50.7 26.2 50.7 c-0.984 0-1.968-0.227-2.952-0.347c-1.119-1.487-2.237-2.974-3.356-4.461c0-2.28 0-4.559 0-6.839 c0.99-1.317 1.834-2.782 2.996-3.925c3.519-3.462 7.998-5.306 12.558-6.88c16.975-5.857 34.632-7.777 52.414-8.95 C90.679 19.1 93.5 18.7 96.3 18.488z"/><path fill-rule="evenodd" clip-rule="evenodd" fill="#965538" d="M23.239 50.306c0.984 0.1 2 0.3 3 0.3 c54.801 0 109.6 0 164.4 0.001c0.984 0 1.967-0.228 2.952-0.349c1.119-0.012 2.236-0.023 3.354-0.035 c0 2.5 0 5.1 0 7.644c-1.574 0.093-3.148 0.185-4.722 0.278c-0.861-0.077-1.722-0.221-2.583-0.221 c-54.172-0.01-108.343-0.01-162.515 0c-0.79 0-1.58 0.149-2.371 0.228c-1.608-0.095-3.217-0.189-4.826-0.285 c0-2.548 0-5.096 0-7.644C21.002 50.3 22.1 50.3 23.2 50.306z"/><path fill-rule="evenodd" clip-rule="evenodd" fill="#FEFDFD" d="M19.883 70.386c3.398 6.2 9.5 8.6 15.6 10.8 c10.762 3.9 22 5.9 33.3 7.216c15.634 1.9 31.3 3 47.1 2.391c20.018-0.716 39.971-2.184 59.381-7.657 c3.468-0.978 6.873-2.236 10.216-3.589c4.706-1.905 8.976-4.457 11.48-9.167c0 7 0 13.9 0 20.9 c-59.005 0-118.011 0-177.016 0C19.883 84.3 19.9 77.4 19.9 70.386z"/><path fill-rule="evenodd" clip-rule="evenodd" fill="#FEFDFD" d="M196.899 39.408c-1.708-4.072-5.027-6.461-8.8-8.336 c-8.61-4.28-17.876-6.408-27.244-8.143c-12.866-2.382-25.87-3.491-38.928-4.059c-0.494-0.022-0.979-0.25-1.467-0.382 c25.48 0 51 0 76.4 0C196.899 25.5 196.9 32.4 196.9 39.408z"/><path fill-rule="evenodd" clip-rule="evenodd" fill="#FEFDFD" d="M96.322 18.488c-2.823 0.258-5.643 0.577-8.471 0.8 c-17.782 1.172-35.439 3.092-52.414 8.95c-4.56 1.574-9.039 3.417-12.558 6.88c-1.162 1.143-2.006 2.607-2.996 3.9 c0-6.839 0-13.678 0-20.518C45.363 18.5 70.8 18.5 96.3 18.488z"/><path fill-rule="evenodd" clip-rule="evenodd" fill="#FCFBFA" d="M192.178 58.192c1.574-0.093 3.148-0.185 4.722-0.278 c0 2 0 4 0 6.035c-1.065-2.156-2.292-4.152-4.821-4.854C192.112 58.8 192.1 58.5 192.2 58.192z"/><path fill-rule="evenodd" clip-rule="evenodd" fill="#FCFBF9" d="M19.883 57.914c1.608 0.1 3.2 0.2 4.8 0.3 c-0.001 0.299-0.003 0.598-0.004 0.896c-2.45 0.571-3.547 2.607-4.821 4.451C19.883 61.7 19.9 59.8 19.9 57.914z"/><path fill-rule="evenodd" clip-rule="evenodd" fill="#FBF8F6" d="M23.239 50.306c-1.119-0.012-2.237-0.024-3.356-0.036 c0-1.475 0-2.95 0-4.425C21.002 47.3 22.1 48.8 23.2 50.306z"/><path fill-rule="evenodd" clip-rule="evenodd" fill="#FBF8F6" d="M196.899 50.27c-1.118 0.012-2.236 0.023-3.354 0 c1.118-1.487 2.236-2.974 3.354-4.46C196.899 47.3 196.9 48.8 196.9 50.27z"/><path fill-rule="evenodd" clip-rule="evenodd" fill="#DEBF9C" d="M112.415 18.488c-2.682 0-5.364 0-8.046 0 C107.05 18.5 109.7 18.5 112.4 18.488z"/><path fill-rule="evenodd" clip-rule="evenodd" fill="#D6BDB1" d="M24.705 59.095c0.001-0.299 0.003-0.597 0.004-0.896 c0.791-0.079 1.581-0.227 2.371-0.228c54.172-0.01 108.343-0.01 162.5 0c0.861 0 1.7 0.1 2.6 0.2 c-0.033 0.301-0.066 0.603-0.099 0.903c-1.129-0.109-2.258-0.313-3.387-0.313c-53.533-0.016-107.066-0.016-160.6 0 C26.962 58.8 25.8 59 24.7 59.095z"/></g></g><g><g><path fill="#A7D9A8" d="M93.919 90.904c9.655 0 19.3 0 29 0c0.513 0.2 1 0.6 1.5 0.7 c8.185 0.7 16.4 1.2 24.6 2.1c11.184 1.2 22.2 3.3 32.8 7.255c6.04 2.3 12.3 4.6 15.1 11.3 c0 1.9 0 3.8 0 5.632c-1.16 1.602-2.319 3.204-3.478 4.806c-1.119 0.141-2.238 0.406-3.357 0.4 c-54.377 0.02-108.753 0.021-163.13 0.002c-1.258 0-2.516-0.233-3.773-0.357c-1.092-1.753-2.185-3.506-3.277-5.259 c0-2.011 0-4.023 0-6.035c0.222-0.132 0.558-0.211 0.648-0.404c1.76-3.765 5.049-5.781 8.576-7.502 c12.026-5.868 25.027-8.08 38.103-9.76c8.34-1.071 16.771-1.436 25.157-2.159C92.908 91.5 93.4 91.1 93.9 90.904z"/><path fill-rule="evenodd" clip-rule="evenodd" fill="#A7D9A8" d="M196.91 136.767c0 1.9 0 3.8 0 5.6 c-1.732 1.982-3.185 4.34-5.25 5.873c-5.625 4.175-12.294 6.113-18.973 7.865c-16.707 4.383-33.806 6.039-50.984 6.7 c-9.758 0.37-19.566 0.206-29.32-0.313c-10.062-0.537-20.108-1.595-30.117-2.798c-10.113-1.215-20.04-3.469-29.519-7.295 c-3.833-1.548-7.638-3.314-10.462-6.539c-0.854-0.977-1.597-2.051-2.391-3.081c0-2.146 0-4.292 0-6.437 c1.646-1.705 3.292-3.41 4.938-5.116c1.071-0.038 2.142-0.109 3.213-0.11c53.571-0.005 107.142-0.005 160.7 0 c1.071 0 2.1 0.1 3.2 0.109C194.123 132.6 195.9 134.4 196.9 136.767z"/><path fill-rule="evenodd" clip-rule="evenodd" fill="#548255" d="M23.171 122.715c1.258 0.1 2.5 0.4 3.8 0.4 c54.377 0 108.8 0 163.13-0.002c1.119 0 2.238-0.265 3.357-0.406c1.16 0.3 2.3 0.6 3.5 0.8 c0 2.1 0 4.3 0 6.437c-0.736 0.02-1.473 0.058-2.209 0.058c-57.151 0.002-114.302 0.002-171.453 0 c-0.335 0-0.673-0.03-1.004 0.004c-1.459 0.15-2.042-0.455-2.019-1.954c0.023-1.514-0.21-3.031-0.332-4.547 c0-0.268 0-0.536 0-0.805C20.986 122.7 22.1 122.7 23.2 122.715z"/><path fill-rule="evenodd" clip-rule="evenodd" fill="#FCFDFC" d="M19.894 142.802c0.794 1 1.5 2.1 2.4 3.1 c2.824 3.2 6.6 5 10.5 6.539c9.479 3.8 19.4 6.1 29.5 7.295c10.008 1.2 20.1 2.3 30.1 2.8 c9.754 0.5 19.6 0.7 29.3 0.313c17.178-0.652 34.277-2.308 50.984-6.691c6.678-1.751 13.347-3.69 18.973-7.865 c2.065-1.533 3.518-3.891 5.25-5.873c0 7 0 13.9 0 20.92c-59.005 0-118.011 0-177.016 0 C19.894 156.5 19.9 149.6 19.9 142.802z"/><path fill-rule="evenodd" clip-rule="evenodd" fill="#FCFDFC" d="M196.91 112.226c-2.848-6.681-9.07-9.003-15.11-11.275 c-10.568-3.976-21.635-6.012-32.818-7.255c-8.162-0.907-16.371-1.388-24.556-2.1c-0.53-0.046-1.028-0.453-1.541-0.692 c24.675 0 49.4 0 74 0C196.91 98 196.9 105.1 196.9 112.226z"/><path fill-rule="evenodd" clip-rule="evenodd" fill="#FCFDFC" d="M93.919 90.904c-0.513 0.239-1.011 0.646-1.541 0.7 c-8.386 0.723-16.817 1.088-25.157 2.159c-13.075 1.68-26.076 3.892-38.103 9.76c-3.527 1.721-6.816 3.737-8.576 7.5 c-0.09 0.193-0.427 0.272-0.648 0.404c0-6.839 0-13.678 0-20.518C44.569 90.9 69.2 90.9 93.9 90.904z"/><path fill-rule="evenodd" clip-rule="evenodd" fill="#80A381" d="M19.894 123.491c0.121 1.5 0.4 3 0.3 4.5 c-0.023 1.5 0.6 2.1 2 1.954c0.332-0.034 0.669-0.004 1.004-0.004c57.151 0 114.3 0 171.453-0.002 c0.736 0 1.473-0.038 2.209-0.058c0 0.3 0 0.5 0 0.805c-1.609 0.001-3.217 0.003-4.826 0 c-0.735-0.027-1.471-0.078-2.206-0.078c-54.317-0.003-108.635-0.003-162.953 0c-0.735 0-1.47 0.051-2.206 0.1 c-1.609-0.002-3.217-0.003-4.826-0.004C19.894 128.3 19.9 125.9 19.9 123.491z"/><path fill-rule="evenodd" clip-rule="evenodd" fill="#F6FAF6" d="M192.084 130.737c1.609-0.001 3.217-0.003 4.826-0.004 c0 2 0 4 0 6.035c-1.023-2.397-2.787-4.131-4.938-5.519C192.01 131.1 192 130.9 192.1 130.737z"/><path fill-rule="evenodd" clip-rule="evenodd" fill="#F6FAF6" d="M19.894 130.732c1.609 0 3.2 0 4.8 0 c0.038 0.2 0.1 0.3 0.1 0.512c-1.646 1.706-3.292 3.411-4.938 5.116C19.894 134.5 19.9 132.6 19.9 130.732z"/><path fill-rule="evenodd" clip-rule="evenodd" fill="#F4F9F4" d="M196.91 123.491c-1.159-0.275-2.318-0.551-3.478-0.827 c1.159-1.602 2.318-3.204 3.478-4.806C196.91 119.7 196.9 121.6 196.9 123.491z"/><path fill-rule="evenodd" clip-rule="evenodd" fill="#F4F9F4" d="M23.171 122.715c-1.092-0.01-2.185-0.02-3.277-0.029 c0-1.743 0-3.486 0-5.23C20.986 119.2 22.1 121 23.2 122.715z"/><path fill-rule="evenodd" clip-rule="evenodd" fill="#DCE6DC" d="M24.833 131.249c-0.038-0.171-0.075-0.341-0.112-0.512 c0.735-0.027 1.471-0.078 2.206-0.078c54.318-0.003 108.635-0.003 163 0c0.735 0 1.5 0.1 2.2 0.1 c-0.037 0.17-0.074 0.341-0.112 0.512c-1.071-0.038-2.143-0.109-3.214-0.109c-53.571-0.005-107.142-0.005-160.713 0 C26.975 131.1 25.9 131.2 24.8 131.249z"/></g></g><g><g><path fill="#F88780" d="M196.899 279.586c0 2.1 0 4.3 0 6.437c-2.583 4.743-6.86 7.55-11.711 9.2 c-7.217 2.434-14.523 4.767-21.961 6.343c-17.691 3.748-35.698 4.737-53.732 4.842c-13.666 0.079-27.314-0.615-40.886-2.36 c-11.313-1.454-22.539-3.365-33.304-7.284c-6.055-2.204-12.023-4.65-15.422-10.727c0-2.28 0-4.56 0-6.839 c1.585-1.625 3.17-3.25 4.755-4.875c0.859-0.086 1.718-0.247 2.576-0.247c54.118-0.012 108.235-0.012 162.4 0 c0.858 0 1.7 0.2 2.6 0.247C193.729 276.1 195.3 277.8 196.9 279.586z"/><path fill-rule="evenodd" clip-rule="evenodd" fill="#F88780" d="M89.081 234.528c12.74 0 25.5 0 38.2 0 c0.294 0.1 0.6 0.3 0.9 0.349c6.328 0.6 12.7 1 19 1.671c11.791 1.3 23.5 3.4 34.6 7.5 c5.994 2.2 12.1 4.5 15.1 10.997c0 2.1 0 4.3 0 6.437c-1.586 1.626-3.173 3.252-4.76 4.9 c-0.859 0.085-1.718 0.246-2.577 0.246c-54.118 0.012-108.235 0.012-162.354 0c-0.858 0-1.717-0.163-2.576-0.25 c-1.583-1.625-3.167-3.249-4.75-4.874c0-2.28 0-4.559 0-6.839c1.63-2.634 3.464-5.172 6.352-6.455 c5.001-2.222 9.985-4.616 15.203-6.189c13.463-4.058 27.374-5.685 41.355-6.752C84.895 235.1 87 234.8 89.1 234.528z"/><path fill-rule="evenodd" clip-rule="evenodd" fill="#7B5354" d="M24.634 266.356c0.859 0.1 1.7 0.2 2.6 0.2 c54.118 0 108.2 0 162.4 0c0.858 0 1.718-0.161 2.577-0.246c1.587 0.3 3.2 0.5 4.8 0.8 c0 2.4 0 4.8 0 7.242c-1.585-0.016-3.171-0.032-4.756-0.048c-0.859-0.086-1.718-0.247-2.576-0.247 c-54.118-0.012-108.235-0.012-162.353 0c-0.858 0-1.717 0.161-2.577 0.247c-1.585 0.016-3.17 0.032-4.754 0 c0-2.682 0-5.364 0-8.046C21.467 266.3 23.1 266.3 24.6 266.356z"/><path fill-rule="evenodd" clip-rule="evenodd" fill="#FEFDFD" d="M19.883 286.023c3.398 6.1 9.4 8.5 15.4 10.7 c10.765 3.9 22 5.8 33.3 7.284c13.572 1.7 27.2 2.4 40.9 2.36c18.035-0.104 36.042-1.094 53.732-4.842 c7.438-1.576 14.744-3.909 21.961-6.343c4.851-1.636 9.127-4.443 11.711-9.186c0 7 0 13.9 0 20.9 c-59.005 0-118.011 0-177.016 0C19.883 300 19.9 293 19.9 286.023z"/><path fill-rule="evenodd" clip-rule="evenodd" fill="#FEFDFD" d="M196.899 255.045c-2.979-6.469-9.09-8.773-15.084-10.997 c-11.172-4.145-22.857-6.155-34.648-7.501c-6.31-0.72-12.657-1.112-18.985-1.671c-0.302-0.026-0.588-0.229-0.882-0.349 c23.2 0 46.4 0 69.6 0C196.899 241.4 196.9 248.2 196.9 255.045z"/><path fill-rule="evenodd" clip-rule="evenodd" fill="#FEFDFD" d="M89.081 234.528c-2.096 0.244-4.186 0.558-6.288 0.7 c-13.981 1.068-27.892 2.695-41.355 6.752c-5.217 1.573-10.202 3.967-15.203 6.189c-2.888 1.283-4.722 3.821-6.352 6.5 c0-6.705 0-13.41 0-20.115C42.949 234.5 66 234.5 89.1 234.528z"/><path fill-rule="evenodd" clip-rule="evenodd" fill="#FAF5F5" d="M196.899 267.115c-1.586-0.251-3.172-0.503-4.759-0.755 c1.586-1.625 3.173-3.251 4.759-4.877C196.899 263.4 196.9 265.2 196.9 267.115z"/><path fill-rule="evenodd" clip-rule="evenodd" fill="#FBF7F7" d="M192.143 274.308c1.585 0 3.2 0 4.8 0 c0 1.7 0 3.5 0 5.23C195.314 277.8 193.7 276.1 192.1 274.308z"/><path fill-rule="evenodd" clip-rule="evenodd" fill="#FBF7F7" d="M24.634 266.356c-1.583-0.016-3.167-0.03-4.75-0.046 c0-1.609 0-3.218 0-4.828C21.467 263.1 23.1 264.7 24.6 266.356z"/><path fill-rule="evenodd" clip-rule="evenodd" fill="#FBF7F7" d="M19.883 274.356c1.584-0.016 3.169-0.032 4.754-0.048 c-1.584 1.625-3.169 3.25-4.754 4.875C19.883 277.6 19.9 276 19.9 274.356z"/></g></g><g><g><path fill="#FEB910" d="M196.899 206.769c0 2.3 0 4.6 0 6.839c-1.787 3.829-4.895 6.38-8.636 7.9 c-5.221 2.152-10.524 4.229-15.965 5.696c-15.346 4.137-31.102 5.967-46.92 6.362c-14.707 0.368-29.449-0.181-44.162-0.711 c-10.747-0.387-21.38-2.085-31.883-4.423c-7.618-1.696-15.154-3.701-22.049-7.545c-3.255-1.815-6.116-4-7.401-7.703 c0-2.28 0-4.56 0-6.839c1.615-1.466 3.23-2.933 4.846-4.399c55.775 0 111.5 0 167.325-0.001 C194.301 202.9 195.8 204.6 196.9 206.769z"/><path fill-rule="evenodd" clip-rule="evenodd" fill="#FEB910" d="M196.899 184.239c0 2.1 0 4.3 0 6.4 c-1.041 1.142-2.098 2.268-3.107 3.437c-0.193 0.224-0.197 0.612-0.288 0.923c-1.654 0.022-3.307 0.062-4.961 0.1 c-22.05 0.004-44.101 0.003-66.151 0.003c-31.434 0-62.867 0.008-94.301-0.02c-1.763-0.001-3.524-0.294-5.287-0.451 c-0.974-1.318-1.948-2.636-2.921-3.955c0-2.146 0-4.292 0-6.437c1.083-3.202 3.302-5.548 6.222-6.938 c4.613-2.195 9.287-4.411 14.155-5.895c16.713-5.093 33.992-7.062 51.348-7.545c14.702-0.41 29.4 0.2 44.2 0.7 c10.812 0.4 21.5 2.1 32.1 4.495c7.481 1.7 14.9 3.7 21.7 7.461C192.751 178.4 195.6 180.6 196.9 184.2 z"/><path fill-rule="evenodd" clip-rule="evenodd" fill="#FED789" d="M22.805 194.631c1.763 0.2 3.5 0.5 5.3 0.5 c31.434 0 62.9 0 94.3 0.02c22.05 0 44.1 0 66.151-0.003c1.654 0 3.307-0.041 4.961-0.062 c1.131 0.3 2.3 0.6 3.4 0.87c0 1.9 0 3.8 0 5.632c-1.568 0.047-3.136 0.094-4.704 0.1 c-0.934-0.047-1.869-0.135-2.803-0.135c-54-0.007-108-0.007-162.001 0c-0.935 0-1.869 0.087-2.803 0.1 c-1.568-0.046-3.136-0.093-4.705-0.14c0-2.012 0-4.023 0-6.035C20.857 195.2 21.8 194.9 22.8 194.631z"/><path fill-rule="evenodd" clip-rule="evenodd" fill="#FEFEFC" d="M19.883 213.206c1.285 3.7 4.1 5.9 7.4 7.7 c6.896 3.8 14.4 5.8 22 7.545c10.502 2.3 21.1 4 31.9 4.423c14.713 0.5 29.5 1.1 44.2 0.7 c15.818-0.395 31.574-2.225 46.92-6.362c5.441-1.467 10.745-3.544 15.965-5.696c3.741-1.542 6.849-4.092 8.636-7.921 c0 7.1 0 14.2 0 21.322c-59.005 0-118.011 0-177.016 0C19.883 227.7 19.9 220.4 19.9 213.206z"/><path fill-rule="evenodd" clip-rule="evenodd" fill="#FEFDFC" d="M196.899 184.239c-1.303-3.687-4.148-5.887-7.403-7.704 c-6.774-3.78-14.175-5.775-21.656-7.461c-10.562-2.381-21.263-4.092-32.075-4.495c-14.71-0.548-29.455-1.127-44.157-0.718 c-17.355 0.483-34.635 2.452-51.348 7.545c-4.869 1.483-9.542 3.7-14.155 5.895c-2.92 1.39-5.139 3.736-6.222 6.9 c0-7.107 0-14.215 0-21.322c59.005 0 118 0 177 0C196.899 170 196.9 177.1 196.9 184.239z"/><path fill-rule="evenodd" clip-rule="evenodd" fill="#FEFCF8" d="M19.883 201.539c1.568 0 3.1 0.1 4.7 0.1 c0.027 0.1 0.1 0.2 0.1 0.29c-1.615 1.466-3.23 2.933-4.846 4.399C19.883 204.8 19.9 203.1 19.9 201.539z"/><path fill-rule="evenodd" clip-rule="evenodd" fill="#FEFCF8" d="M192.195 201.679c1.568-0.047 3.136-0.094 4.704-0.141 c0 1.7 0 3.5 0 5.23c-1.059-2.162-2.598-3.84-4.846-4.803C192.122 201.9 192.2 201.8 192.2 201.679z"/><path fill-rule="evenodd" clip-rule="evenodd" fill="#FEFCF9" d="M196.899 195.906c-1.131-0.29-2.263-0.58-3.395-0.87 c0.091-0.312 0.094-0.7 0.288-0.923c1.009-1.169 2.066-2.295 3.107-3.437C196.899 192.4 196.9 194.2 196.9 195.906z"/><path fill-rule="evenodd" clip-rule="evenodd" fill="#FEFCF8" d="M22.805 194.631c-0.974 0.292-1.948 0.582-2.921 0.9 c0-1.609 0-3.218 0-4.828C20.857 192 21.8 193.3 22.8 194.631z"/><path fill-rule="evenodd" clip-rule="evenodd" fill="#FEE6B4" d="M192.195 201.679c-0.027 0.106-0.074 0.201-0.142 0.3 c-55.775 0-111.55 0-167.325 0.001c-0.066-0.087-0.113-0.185-0.14-0.29c0.934-0.045 1.868-0.133 2.802-0.133 c54-0.007 108.001-0.007 162 0C190.327 201.5 191.3 201.6 192.2 201.679z"/></g></g></svg>